<svg id="Camada_1" data-name="Camada 1" xmlns="http://www.w3.org/2000/svg" viewBox="0 0 1000 1000"><defs><style>.cls-1{fill:#fff;}.cls-2{fill:#30a9c2;}.cls-3{fill:#1dbdfc;}</style></defs><circle class="cls-1" cx="356.15" cy="447.09" r="85.31"/><circle class="cls-1" cx="622.67" cy="438.09" r="82.41"/><ellipse class="cls-2" cx="503.64" cy="667.85" rx="228.56" ry="92.71"/><ellipse class="cls-3" cx="498.5" cy="901.7" rx="412.17" ry="91.3"/><path class="cls-3" d="M676.35,482.14l7.39-2.11,3.17-8.45s1.05-4.22-4.23-4.22-19,4.22-30.6,2.11-34.84-3.16-44.34,0-13.49,5.89-16.24,8.75S593,492.69,594,493.75s14.78,6.33,14.78,6.33L632,502.19Z"/><path class="cls-3" d="M316.24,482.14,308.85,480l-3.17-8.45s-1.05-4.22,4.22-4.22,19,4.22,30.61,2.11,34.84-3.16,44.33,0,13.5,5.89,16.25,8.75-1.47,14.47-2.52,15.53-14.78,6.33-14.78,6.33l-23.22,2.11Z"/><path class="cls-2" d="M177.41,202.47c-8.65-5.32-18-11.07-26.33-18.27-22.82-19.7-38.33-43.73-44.31-73.56-7.53-37.6,8.69-73.08,42.29-91.33a122.2,122.2,0,0,1,73.67-14.4c23.41,2.72,42.55,14.43,55.92,33.6,25.52,36.61,29,75.72,9.23,116-9.53,19.47-25.44,32.73-45.33,41.22-3.81,1.63-7.68,3.11-11.31,4.56-3.83,21.39-3.48,78.8,1,87.92,6.24-5.18,12.34-10.14,18.32-15.25C298.2,232.27,352.41,204.06,414,192.43c129.92-24.52,244.28,6.79,340.77,98.62,2.18,2.07,4.41,4.08,6.75,6.24,1.61-5.64.83-78.91-.92-95.91-2.18-2.3-5.23-2.83-8-3.9C704.19,179,686.5,132.88,691.66,90.63c2.48-20.33,9.63-39,22.75-54.95C731,15.57,752.2,4.66,778.58,4.17A132.9,132.9,0,0,1,829.7,13.5c43.39,16.9,64.49,57.41,53.3,102.68-8.64,35-29.76,61-59.71,79.9-7.88,5-10.35,10.15-10.21,19,.63,40.94.6,81.88.77,122.83,0,4.16.82,8.75-.62,12.4-3.37,8.54-.26,15.11,3.84,22.32a366,366,0,0,1,47.16,154.09c6.18,79.16-10.13,153.39-51.78,220.84-60,97.17-146.48,158.08-259.9,175.84C426.82,943.14,317.79,906.26,227,817.31c-33.88-33.2-61-71.89-77.68-116.51C129.91,649,117.8,595.37,121.92,539.57c4.62-62.55,17.37-123,52.11-176.86,2.79-4.32,3.28-8.47,3.13-13.75-.57-19.68.16-39.41.23-59.11C177.48,261.06,177.41,232.27,177.41,202.47ZM499,609.29H355.63c-3.42,0-6.85-.14-10.24.13-8,.65-12.15,4.25-14.64,12-3.56,11-.38,21,4.95,30.43,7.74,13.79,19,24.53,31.07,34.39,29.25,23.85,63.6,36.28,100,43.86,13.72,2.86,27.58,5.78,41.68,3.8,11.24-1.58,22.47-3.56,33.49-6.24,36.58-8.9,70.46-23.3,98.43-49.44,8.37-7.82,15.89-16.26,21.76-26.11,4.78-8,7.1-16.65,5.95-26.08-1.35-11.08-6.7-16.19-17.74-16.67-3-.14-6.07,0-9.11,0ZM354.65,394.63H346.7c-19.34.06-31.2,7.89-38.49,25.75A66.61,66.61,0,0,0,306.53,467c4.25,13.37,12.85,22.88,26.37,27.62a96.59,96.59,0,0,0,15.25,4.26c20,3.56,37-1.94,49.4-18,13.47-17.43,15.22-37.11,5.29-56.52-9.08-17.77-21.56-32.31-44.79-29.69A29.65,29.65,0,0,1,354.65,394.63Zm282.6,0c-19.68-4.39-32.73,5.86-43.57,20.17-25,33-7.4,78.44,32.62,84.71,10.82,1.7,21-1.07,31.07-4.56,15.25-5.29,24.1-16.44,28.29-31.55a65.4,65.4,0,0,0-1-38c-6.8-21.41-19.43-30.77-41.78-30.81Z"/><path class="cls-1" d="M601,706.78H395.6s-13-12.11-6.77-26.1,112.28-109,212.14,0C601,680.68,616.21,700.26,601,706.78Z"/><rect class="cls-3" x="314.32" y="477.92" width="63.33" height="436.98"/><rect class="cls-3" x="616.19" y="482.14" width="63.33" height="436.98"/></svg>