<?xml version="1.0" standalone="no"?>
<!DOCTYPE svg PUBLIC "-//W3C//DTD SVG 20010904//EN"
 "http://www.w3.org/TR/2001/REC-SVG-20010904/DTD/svg10.dtd">
<svg version="1.0" xmlns="http://www.w3.org/2000/svg"
 width="512.000000pt" height="512.000000pt" viewBox="0 0 512.000000 512.000000"
 preserveAspectRatio="xMidYMid meet">

<g transform="translate(0.000000,512.000000) scale(0.100000,-0.100000)"
fill="#000000" stroke="none">
<path d="M470 4787 c-49 -16 -123 -93 -138 -143 -17 -57 -18 -4109 -1 -4169
15 -53 91 -129 144 -144 56 -15 4113 -16 4169 0 21 6 58 28 81 50 82 75 75
-116 75 2177 0 1582 -3 2054 -12 2086 -16 54 -90 128 -144 144 -57 17 -4121
16 -4174 -1z m1188 -492 c93 -51 152 -140 174 -266 13 -76 -1 -168 -37 -239
-30 -59 -111 -133 -170 -156 l-45 -17 0 -107 c0 -59 -2 -127 -5 -151 -10 -78
4 -80 87 -12 184 152 377 247 601 295 139 29 429 32 557 4 242 -52 476 -172
651 -334 38 -35 71 -63 72 -61 1 2 1 84 -1 182 l-3 177 -59 30 c-84 43 -125
82 -162 158 -31 63 -33 73 -33 172 0 99 2 110 33 172 66 134 168 194 316 186
188 -12 319 -110 346 -260 28 -148 -64 -334 -210 -428 l-49 -32 -3 -291 -3
-292 57 -120 c119 -249 162 -510 127 -776 -101 -782 -847 -1315 -1621 -1158
-114 23 -245 67 -342 116 -326 164 -587 470 -680 796 -52 179 -61 243 -61 417
0 141 4 185 28 305 30 145 73 266 132 367 l34 57 6 290 6 289 -43 25 c-66 39
-155 138 -190 213 -120 257 51 491 352 481 72 -3 93 -8 138 -32z"/>
</g>
</svg>
