<svg id="Camada_1" data-name="Camada 1" xmlns="http://www.w3.org/2000/svg" viewBox="0 0 1000 1000"><defs><style>.cls-1{fill:#383747;}.cls-2{fill:#fff;}.cls-3{fill:#30a9c2;}</style></defs><rect class="cls-1" x="0.5" y="0.5" width="999" height="999" rx="157"/><path class="cls-1" d="M842.5,1A156.51,156.51,0,0,1,999,157.5v685A156.51,156.51,0,0,1,842.5,999h-685A156.51,156.51,0,0,1,1,842.5v-685A156.51,156.51,0,0,1,157.5,1h685m0-1h-685A157.49,157.49,0,0,0,0,157.5v685A157.49,157.49,0,0,0,157.5,1000h685A157.49,157.49,0,0,0,1000,842.5v-685A157.49,157.49,0,0,0,842.5,0Z"/><g id="sBotics"><circle class="cls-2" cx="385.87" cy="484.27" r="69.76"/><circle class="cls-2" cx="603.81" cy="476.9" r="67.39"/><ellipse class="cls-2" cx="506.48" cy="664.78" rx="186.89" ry="75.81"/><path class="cls-3" d="M239.73,284.24c-7.08-4.35-14.72-9.05-21.54-14.94-18.66-16.11-31.34-35.76-36.23-60.15-6.16-30.75,7.11-59.75,34.59-74.67a99.81,99.81,0,0,1,60.23-11.78c19.14,2.22,34.8,11.79,45.73,27.47,20.86,29.94,23.67,61.92,7.55,94.87C322.27,261,309.25,271.8,293,278.75c-3.11,1.33-6.28,2.54-9.25,3.73-3.13,17.48-2.85,64.43.81,71.89,5.1-4.24,10.09-8.3,15-12.47,39-33.29,83.29-56.36,133.67-65.87,106.23-20,199.74,5.56,278.64,80.64,1.78,1.69,3.61,3.34,5.52,5.1,1.32-4.61.68-64.52-.75-78.42-1.79-1.88-4.28-2.31-6.58-3.19-39.56-15.1-54-52.82-49.81-87.37,2-16.63,7.87-31.9,18.6-44.93,13.54-16.44,30.9-25.37,52.47-25.76a108.61,108.61,0,0,1,41.81,7.62c35.47,13.82,52.73,46.94,43.58,84-7.06,28.59-24.34,49.89-48.83,65.34-6.44,4.06-8.46,8.3-8.35,15.57.52,33.48.5,67,.63,100.44,0,3.4.67,7.15-.5,10.14-2.76,7-.22,12.35,3.13,18.25a299.19,299.19,0,0,1,38.57,126C806.38,614.14,793,674.85,759,730c-49.06,79.45-119.78,129.25-212.52,143.78-102.81,16.1-192-14.06-266.18-86.79-27.7-27.15-49.84-58.78-63.52-95.27-15.88-42.37-25.79-86.21-22.42-131.84,3.78-51.15,14.2-100.6,42.61-144.61,2.28-3.54,2.68-6.93,2.56-11.24-.47-16.1.14-32.23.19-48.34C239.78,332.15,239.73,308.61,239.73,284.24Zm263,332.66H385.45c-2.79,0-5.6-.11-8.37.11-6.56.53-9.93,3.47-12,9.78-2.91,9-.31,17.14,4,24.89,6.34,11.27,15.52,20.05,25.41,28.12,23.92,19.5,52,29.66,81.76,35.86,11.21,2.34,22.55,4.73,34.08,3.11,9.19-1.29,18.37-2.91,27.38-5.1,29.91-7.28,57.62-19.06,80.49-40.43a97.82,97.82,0,0,0,17.78-21.35,32.89,32.89,0,0,0,4.87-21.32c-1.1-9.07-5.48-13.24-14.51-13.64-2.47-.11-5,0-7.44,0Zm-118-175.53h-6.5c-15.81.05-25.51,6.45-31.48,21.06a54.47,54.47,0,0,0-1.37,38.08c3.48,10.93,10.51,18.71,21.56,22.59a80,80,0,0,0,12.47,3.48c16.36,2.91,30.24-1.59,40.4-14.73,11-14.26,12.44-30.35,4.33-46.22-7.43-14.53-17.63-26.42-36.63-24.28A23.41,23.41,0,0,1,384.65,441.37Zm231.08,0c-16.09-3.59-26.76,4.79-35.63,16.49-20.43,27-6.05,64.14,26.67,69.27,8.86,1.39,17.18-.88,25.41-3.73,12.48-4.33,19.71-13.44,23.13-25.8a53.4,53.4,0,0,0-.78-31c-5.56-17.5-15.89-25.16-34.16-25.19Z"/></g></svg>