<svg id="Camada_1" data-name="Camada 1" xmlns="http://www.w3.org/2000/svg" viewBox="0 0 1000 1000"><defs><style>.cls-1{fill:#383747;}.cls-2{fill:#fff;}.cls-3{fill:#30a9c2;}</style></defs><rect class="cls-1" x="0.5" y="0.5" width="999" height="999" rx="157"/><path class="cls-1" d="M842.5,1A156.51,156.51,0,0,1,999,157.5v685A156.51,156.51,0,0,1,842.5,999h-685A156.51,156.51,0,0,1,1,842.5v-685A156.51,156.51,0,0,1,157.5,1h685m0-1h-685A157.49,157.49,0,0,0,0,157.5v685A157.49,157.49,0,0,0,157.5,1000h685A157.49,157.49,0,0,0,1000,842.5v-685A157.49,157.49,0,0,0,842.5,0Z"/><g id="Auth"><g id="Base"><circle class="cls-2" cx="384.56" cy="485.2" r="70.23"/><circle class="cls-2" cx="603.98" cy="477.78" r="67.84"/><ellipse class="cls-2" cx="505.99" cy="666.93" rx="188.16" ry="76.32"/><path class="cls-3" d="M237.43,283.81c-7.11-4.37-14.81-9.11-21.68-15-18.81-16.23-31.56-36-36.47-60.56-6.2-30.95,7.15-60.15,34.85-75.17a100.48,100.48,0,0,1,60.64-11.9c19.28,2.23,35,11.9,46,27.65,21,30.15,23.79,62.34,7.59,95.52-7.84,16-20.94,26.94-37.31,33.93-3.14,1.34-6.33,2.55-9.35,3.76-3.15,17.6-2.87,64.87.85,72.37,5.1-4.25,10.2-8.35,15.08-12.55,39.23-33.52,83.86-56.75,134.58-66.29,107-20.18,201.09,5.59,280.53,81.19,1.8,1.7,3.63,3.35,5.55,5.14,1.34-4.65.69-65-.75-79-1.8-1.9-4.31-2.33-6.63-3.21-39.83-15.2-54.39-53.18-50.14-88,2.05-16.75,7.93-32.12,18.7-45.24,13.6-16.56,31.11-25.5,52.82-25.94a109.57,109.57,0,0,1,42.09,7.65c35.7,13.91,53.09,47.25,43.88,84.53-7.11,28.78-24.5,50.22-49.16,65.77-6.49,4.1-8.49,8.36-8.4,15.68.52,33.7.49,67.41.63,101.14,0,3.4.68,7.19-.51,10.19-2.77,7-.21,12.45,3.16,18.39a301.11,301.11,0,0,1,38.86,126.88c5.1,65.16-8.34,126.28-42.63,181.8-49.43,80-120.63,130.13-214,144.75C442.75,893.56,353,863.19,278.27,790c-27.89-27.34-50.14-59.18-63.95-95.92-16-42.65-26-86.79-22.57-132.73,3.8-51.49,14.29-101.28,42.9-145.59,2.29-3.56,2.69-7,2.55-11.32-.48-16.21.13-32.44.19-48.67C237.49,332.05,237.43,308.34,237.43,283.81Zm264.73,335.1-118-.85c-2.81.64-5.63.53-8.42.75-6.62.54-10,3.49-12.06,9.85-2.93,9.08-.31,17.25,4.08,25.05,6.37,11.35,15.62,20.2,25.58,28.32,24.08,19.63,52.35,29.86,82.3,36.1,11.3,2.36,22.7,4.76,34.31,3.13,9.26-1.3,18.5-2.93,27.57-5.14,30.12-7.32,58-19.18,81-40.7a98.87,98.87,0,0,0,17.91-21.49c3.94-6.62,5.85-13.71,4.9-21.47-1.11-9.13-5.51-13.33-14.6-13.73a64.65,64.65,0,0,0-7.49.18ZM383.34,442.14h-6.55c-15.91.05-25.69,6.49-31.69,21.2a54.85,54.85,0,0,0-1.38,38.34c3.5,11.05,10.58,18.83,21.71,22.74A80.28,80.28,0,0,0,378,527.9c16.47,2.93,30.44-1.59,40.66-14.83,11.09-14.36,12.53-30.6,4.36-46.53-7.47-14.64-17.75-26.6-36.87-24.44A25.6,25.6,0,0,1,383.34,442.14Zm232.64,0c-16.19-3.62-26.94,4.82-35.87,16.61C559.55,486,574,523.38,607,528.48c8.9,1.4,17.29-.85,25.57-3.76,12.56-4.35,19.84-13.53,23.29-26A53.77,53.77,0,0,0,655,467.5c-5.6-17.63-16-25.33-34.39-25.36Z"/><circle class="cls-2" cx="765.91" cy="785.69" r="124.5"/><circle class="cls-3" cx="765.91" cy="785.69" r="105.77"/></g><g id="Auth-2" data-name="Auth"><path class="cls-2" d="M723.74,846.67H812a12.41,12.41,0,0,0,12-9.35H711.73A12.41,12.41,0,0,0,723.74,846.67Z"/><path class="cls-2" d="M808,749.78c0-28.2-30.68-49.54-61.09-33.87a35.28,35.28,0,0,0-19.09,31.39v16.93h-7.65a7.66,7.66,0,0,0-7.65,7.65v60.34H823.85V771.88a7.65,7.65,0,0,0-7.65-7.65h-8.5V749.78Zm-35.14,56.7v9.59h-10.2v-9.59c-4.37-2.7-6.51-8.69-2.67-14.58a5.3,5.3,0,0,1,1.45-1.46c7.82-5.15,16.08.33,16.08,7.74a9.76,9.76,0,0,1-4.66,8.3Zm17-42.25H744.82V747a18.51,18.51,0,0,1,8.56-15.67c16.91-10.66,34.65,0,36.48,15.53Z"/></g></g></svg>