<?xml version="1.0" encoding="UTF-8"?><svg id="a" xmlns="http://www.w3.org/2000/svg" viewBox="0 0 1000 1000"><defs><style>.c{fill:#fff;}.d{fill:#efefef;}.e{fill:#30a9c2;}</style></defs><g><rect class="d" x=".5" y=".5" width="999" height="999" rx="157" ry="157"/><path class="d" d="M842.5,1c41.8,0,81.1,16.28,110.66,45.84,29.56,29.56,45.84,68.86,45.84,110.66V842.5c0,41.8-16.28,81.1-45.84,110.66-29.56,29.56-68.86,45.84-110.66,45.84H157.5c-41.8,0-81.1-16.28-110.66-45.84-29.56-29.56-45.84-68.86-45.84-110.66V157.5c0-41.8,16.28-81.1,45.84-110.66C76.4,17.28,115.7,1,157.5,1H842.5m0-1H157.5C70.51,0,0,70.51,0,157.5V842.5c0,86.98,70.51,157.5,157.5,157.5H842.5c86.98,0,157.5-70.51,157.5-157.5V157.5C1000,70.51,929.49,0,842.5,0h0Z"/></g><g id="b"><circle class="c" cx="385.87" cy="484.27" r="69.76"/><circle class="c" cx="603.81" cy="476.9" r="67.39"/><ellipse class="c" cx="506.48" cy="664.78" rx="186.89" ry="75.81"/><path class="e" d="M239.73,284.24c-7.07-4.35-14.72-9.05-21.53-14.94-18.66-16.11-31.34-35.76-36.23-60.15-6.16-30.75,7.11-59.75,34.58-74.68,18.79-10.2,39.07-14.23,60.23-11.78,19.14,2.22,34.8,11.79,45.72,27.47,20.87,29.94,23.67,61.92,7.55,94.87-7.79,15.92-20.8,26.76-37.07,33.71-3.12,1.33-6.29,2.54-9.25,3.73-3.13,17.49-2.85,64.43,.81,71.89,5.1-4.24,10.09-8.29,14.98-12.47,38.97-33.29,83.29-56.36,133.67-65.87,106.23-20.05,199.74,5.56,278.64,80.64,1.78,1.69,3.6,3.34,5.51,5.11,1.32-4.61,.68-64.53-.75-78.42-1.78-1.88-4.28-2.32-6.57-3.19-39.56-15.09-54.03-52.82-49.81-87.37,2.03-16.62,7.87-31.9,18.6-44.93,13.54-16.44,30.9-25.37,52.47-25.76,14.48-.27,28.37,2.39,41.81,7.63,35.47,13.82,52.73,46.94,43.58,83.96-7.06,28.59-24.34,49.89-48.83,65.34-6.45,4.07-8.46,8.3-8.35,15.58,.52,33.47,.5,66.95,.63,100.43,.01,3.4,.67,7.15-.51,10.14-2.75,6.99-.21,12.36,3.14,18.25,22.21,39.11,35.06,81.09,38.56,125.99,5.06,64.73-8.29,125.43-42.34,180.58-49.06,79.46-119.78,129.26-212.52,143.78-102.81,16.1-191.96-14.05-266.18-86.79-27.71-27.15-49.85-58.78-63.52-95.27-15.88-42.36-25.79-86.21-22.42-131.84,3.78-51.15,14.2-100.6,42.61-144.61,2.28-3.53,2.68-6.93,2.56-11.24-.47-16.1,.14-32.22,.19-48.34,.07-23.54,.02-47.08,.02-71.45Zm262.95,332.66c-39.08,0-78.15,0-117.23,0-2.79,0-5.59-.11-8.37,.11-6.56,.53-9.93,3.47-11.97,9.78-2.91,9.02-.31,17.13,4.05,24.89,6.33,11.27,15.52,20.05,25.41,28.12,23.92,19.5,52,29.66,81.75,35.86,11.21,2.34,22.55,4.72,34.08,3.1,9.19-1.29,18.37-2.91,27.38-5.1,29.91-7.27,57.62-19.05,80.49-40.43,6.84-6.39,12.99-13.29,17.78-21.34,3.92-6.58,5.81-13.62,4.87-21.33-1.1-9.06-5.48-13.24-14.51-13.63-2.48-.11-4.96-.03-7.44-.03-38.77,0-77.53,0-116.3,0Zm-118.03-175.53c-2.17,0-4.33,0-6.5,0-15.81,.05-25.52,6.45-31.48,21.06-5.1,12.49-5.44,25.29-1.37,38.08,3.48,10.93,10.51,18.71,21.56,22.59,4.09,1.43,8.18,2.72,12.47,3.48,16.36,2.91,30.24-1.58,40.4-14.73,11.01-14.25,12.44-30.34,4.33-46.22-7.43-14.53-17.63-26.42-36.63-24.27-.92,.1-1.85,.01-2.78,.01Zm231.08,0c-16.09-3.59-26.76,4.79-35.63,16.49-20.43,26.98-6.05,64.14,26.67,69.27,8.85,1.39,17.18-.88,25.41-3.73,12.48-4.33,19.71-13.44,23.13-25.8,2.88-10.38,2.49-20.75-.78-31.04-5.56-17.5-15.89-25.16-34.16-25.19-1.55,0-3.09,0-4.64,0Z"/></g></svg>